<svg width="180" height="144" viewBox="0 0 180 144" fill="none" xmlns="http://www.w3.org/2000/svg">
<path d="M0.360016 64.98C3.87001 27.09 38.16 0 75.96 0C77.67 0 79.38 0.0899998 81.09 0.18C180 6.66 180 118.8 180 118.8V126C180 135.9 171.9 144 162 144H72C29.97 144 -3.68999 107.91 0.360016 64.98ZM150.66 68.04C145.53 56.43 139.14 46.89 131.4 39.33L98.82 53.1C93.42 55.35 90 60.57 90 66.42C90 74.43 96.48 80.91 104.49 80.91H155.52C154.17 76.77 152.64 72.45 150.66 68.04ZM32.04 108.36C42.3 119.61 56.88 126 72 126H162V118.8C162 118.62 161.91 110.52 159.84 99H104.49C86.58 99 72 84.42 72 66.51C72 53.46 79.83 41.67 91.8 36.63L114.3 27.09C104.4 21.96 92.97 18.99 79.92 18.18C78.57 18 77.22 18 75.96 18C46.17 18 20.79 39.33 18.27 66.69C16.83 82.17 21.69 96.93 32.04 108.36Z" fill="black"/>
</svg>
